<?xml version="1.0" standalone="no"?>
<!DOCTYPE svg PUBLIC "-//W3C//DTD SVG 20010904//EN"
 "http://www.w3.org/TR/2001/REC-SVG-20010904/DTD/svg10.dtd">
<svg version="1.0" xmlns="http://www.w3.org/2000/svg"
 width="1040.000000pt" height="1040.000000pt" viewBox="0 0 1040.000000 1040.000000"
 preserveAspectRatio="xMidYMid meet">
<metadata>
Created by potrace 1.14, written by Peter Selinger 2001-2017
</metadata>
<g transform="translate(0.000000,1040.000000) scale(0.100000,-0.100000)"
fill="#000000" stroke="none">
<path d="M1000 6497 l0 -3904 133 -81 c72 -45 175 -109 227 -142 52 -33 102
-63 110 -67 8 -4 47 -28 87 -55 40 -26 74 -48 76 -48 2 0 38 -21 78 -47 41
-27 82 -52 91 -58 10 -5 70 -43 135 -84 65 -41 134 -84 153 -96 19 -12 62 -39
95 -60 33 -21 69 -44 80 -50 11 -6 52 -31 91 -55 38 -25 79 -50 90 -57 10 -7
59 -37 108 -68 48 -30 92 -55 96 -55 5 0 10 -4 12 -8 2 -4 82 -57 178 -116 96
-60 198 -123 225 -141 116 -74 327 -205 331 -205 2 0 4 2093 4 4650 l0 4650
-1200 0 -1200 0 0 -3903z"/>
<path d="M4002 5559 l3 -4842 185 -115 c102 -63 194 -120 205 -126 11 -6 46
-28 78 -49 31 -20 60 -37 63 -37 2 0 10 -5 17 -11 7 -5 120 -77 252 -159 132
-82 254 -158 271 -170 16 -11 35 -20 41 -20 6 0 13 -4 15 -9 2 -5 31 -11 65
-14 l63 -5 127 80 c71 45 147 93 171 107 24 14 262 163 529 331 268 168 491
307 497 309 5 2 15 8 21 13 5 5 55 37 110 71 55 34 102 65 103 69 2 5 8 8 14
8 5 0 29 13 53 30 24 16 46 30 50 30 3 0 18 8 33 19 15 10 52 34 82 53 74 47
168 106 210 133 19 13 204 128 410 256 206 128 377 236 380 239 3 3 21 14 40
24 19 11 71 43 115 71 44 28 134 85 200 125 66 41 141 88 167 105 26 16 83 53
128 80 145 89 245 153 257 164 7 6 15 11 18 11 7 0 259 156 392 244 l33 21 0
1403 0 1402 -1200 0 -1200 0 0 -734 0 -733 -297 -186 -298 -186 -3 3420 -2
3419 -1200 0 -1200 0 2 -4841z"/>
<path d="M7000 8200 l0 -2200 1200 0 1200 0 0 2200 0 2200 -1200 0 -1200 0 0
-2200z"/>
</g>
</svg>
